<?xml version="1.0" encoding="utf-8"?>
<!-- Generator: Adobe Illustrator 23.0.6, SVG Export Plug-In . SVG Version: 6.00 Build 0)  -->
<svg version="1.1" id="Layer_1" xmlns="http://www.w3.org/2000/svg" xmlns:xlink="http://www.w3.org/1999/xlink" x="0px" y="0px"
	 viewBox="0 0 740 914" style="enable-background:new 0 0 740 914;" xml:space="preserve">
<style type="text/css">
	.st0{clip-path:url(#SVGID_2_);}
	.st1{fill:#E6F2EA;}
	.st2{fill:#6B696D;}
	.st3{fill:#FFBD95;}
	.st4{fill:#8D3B26;}
	.st5{fill:#3A383D;}
	.st6{fill:#FFA47C;}
	.st7{fill:#191919;}
	.st8{fill:#424242;}
	.st9{fill:#231F20;}
	.st10{fill:#9B9A9D;}
	.st11{fill:#9A5C57;}
	.st12{fill:#DE614B;}
	.st13{fill:#0C1F34;}
	.st14{fill:#844B47;}
	.st15{fill:#CCCCCD;}
	.st16{fill:#8472A7;}
	.st17{fill:#2C294C;}
	.st18{fill:#6DAD81;}
	.st19{fill:#FEECE7;}
	.st20{fill:#4D2728;}
	.st21{fill:#FFFFFF;}
	.st22{fill:#4A2821;}
	.st23{fill:#C4521A;}
	.st24{fill:#7D483E;}
	.st25{fill:#D1D1D1;}
</style>
<g>
	<defs>
		<rect id="SVGID_1_" width="740" height="914"/>
	</defs>
	<clipPath id="SVGID_2_">
		<use xlink:href="#SVGID_1_"  style="overflow:visible;"/>
	</clipPath>
	<g id="Get_help_from_police" class="st0">
		<path id="Path_102018" class="st1" d="M123.1,457.1c-9.4,26.6-27.2,49.2-43.1,72.7c-17.5,25.9-32.8,53.1-45.8,81.5
			C20.4,641.3,9.2,673,6.9,706c-2.2,33,5,67.6,25.3,94c34.3,44.8,96.5,57.3,153,59.4c67.1,2.5,135.1-5.2,197.3-29.9
			c44.1-17.6,84.2-43.4,124.2-69.2c22.6-14.5,45.2-29.2,64.3-47.9c17.7-17.4,31.9-38,45.9-58.5c15-21.9,30-43.7,42.7-67
			c40.4-74.2,55.4-159.3,68.4-242.8c4.6-29.4,9-60.2-1.1-88.3c-7.8-21.9-23.8-40.2-41.6-55.4c-23.3-19.9-52.6-36.1-83.1-33.7
			c-45.1,3.6-79,45.7-123.8,51.4c-57.4,7.3-106.8-47-164.7-49.5c-24.1-1.1-47.6,7-69.8,16.2c-52.9,21.9-103.8,56-108.7,117.6
			C130.9,354.7,141.2,405.8,123.1,457.1z"/>
		<path id="Path_143189" class="st2" d="M337.8,368.5c-6.4-7-15.2-7-21.6,0c-2.7,2.8-6.3,4.6-8.8,2.3l-1-1.1c-2.5-2.3-1.7-10.9,3-16
			c10.5-11.4,24.7-11.4,35.2,0c4.7,5.1,5.5,13.7,3,16l-1,1.1C344.1,373.2,340.5,371.3,337.8,368.5z"/>
		<g id="Group_19633" transform="translate(267.804 413.709)">
			<path id="Path_143190" class="st3" d="M13.3,36.3L13.3,36.3c-1.2-0.6-1.6-2.1-1-3.3l4.9-9.3c0.6-1.2,2.1-1.7,3.3-1c0,0,0,0,0,0h0
				c1.2,0.6,1.6,2.1,1,3.3l-4.9,9.3C16,36.4,14.5,36.9,13.3,36.3C13.3,36.3,13.3,36.3,13.3,36.3z"/>
			<path id="Path_143191" class="st3" d="M9.1,34.5L9.1,34.5c-1.2-0.6-1.7-2.1-1-3.3l4.9-9.3c0.6-1.2,2.1-1.7,3.3-1c0,0,0,0,0,0l0,0
				c1.2,0.6,1.6,2.1,1,3.3l-4.9,9.3C11.7,34.7,10.3,35.1,9.1,34.5C9.1,34.5,9.1,34.5,9.1,34.5z"/>
			<path id="Path_143192" class="st3" d="M5,32.6L5,32.6c-1.2-0.6-1.7-2.1-1-3.3L8.9,20c0.6-1.2,2.1-1.7,3.3-1c0,0,0,0,0,0h0
				c1.2,0.6,1.6,2.1,1,3.3l-4.9,9.3C7.7,32.7,6.2,33.2,5,32.6C5,32.6,5,32.6,5,32.6z"/>
			<path id="Path_143193" class="st3" d="M1.3,30.3L1.3,30.3c-1.2-0.6-1.7-2.1-1-3.3l4.9-9.3c0.6-1.2,2.1-1.7,3.3-1c0,0,0,0,0,0l0,0
				c1.2,0.6,1.6,2.1,1,3.3l-4.9,9.3C4,30.5,2.5,30.9,1.3,30.3z"/>
			<path id="Path_143194" class="st3" d="M19.5,0c0,0-11.8,9.9-13.7,12.7S0,28.1,0,28.1s5.8-1.5,8.2,0.3s8.4,6.9,8.4,6.9
				s6.2-8.4,8.7-13.1c2.1-3.7,3.7-7.7,4.9-11.8L19.5,0z"/>
		</g>
		<path id="Path_143195" class="st4" d="M220.3,171c0,0-9-18.1-22.9-10.2c-13.9,7.9-16.3,28.9-11.2,36.4c5.1,7.5,11.1,37.8,9.1,38
			s-0.2,5.4,4.5,5.3s18.2-3.7,15.8-18.7s2.9-25.6,2.9-25.6L220.3,171z"/>
		<path id="Path_143196" class="st5" d="M273.8,266.8c8.4-4,28.1,17.1,39.1,42.6c19.2,44.2,35.1,49.5,18.9,60.7
			c-20.1,13.8-22.2-6.9-44.1-42C270.5,300.6,256.5,275.2,273.8,266.8z"/>
		<path id="Path_143197" class="st5" d="M172.1,279.6c3.5-7.8,21.3-11.2,29.5-13.7c8.4-2.5,33.1-3.3,33.1-3.3s31.8,3.7,40.3,3.4
			c3.6-0.1,9.5,16.1,10.9,19.8c7.8,20.7,13.8,39,1.5,58.4c-3.1,4.9-9,30.2-9,50.4c0,8.4-0.1,40.7,3.1,56.8
			c-19.5,0-27.4,1.9-46.9,1.9H180c6-15.7,13.2-33.7,14.2-42C201.6,349.6,166.8,291.4,172.1,279.6z"/>
		<path id="Path_143198" class="st3" d="M216.8,249.9c2.5-6.5,2.3-31.1,2.3-31.1h31.3c0,0-0.2,24.6,2.3,31.1
			c2.5,6.5,12.5,14.4,12.5,14.4l-18.7,9.8l-37.5-11.5C208.9,262.6,214.3,256.4,216.8,249.9z"/>
		<path id="Path_143199" class="st6" d="M218.9,231c0.2-6.6,0.2-12.2,0.2-12.2h31.3c0,0-0.3,24.6,2.3,31.1
			c2.5,6.5,15.2,16.1,15.2,16.1l-21.5,8.2L218.9,231L218.9,231z"/>
		<path id="Path_143200" class="st3" d="M207.2,208.9c7.1,23.5,33.1,36.4,45.1,32.8c11.7-3.5,21.7-27.6,16.7-52
			c-4.9-24.1-23.7-35-41.5-29.6S200,185.4,207.2,208.9z"/>
		<path id="Path_143201" class="st4" d="M247.9,174.3c-1.7,7.1-7.8,12.1-22.3,15.3c-10.4,2.3-15.1,17.7-14.2,23.5
			c0.3,2.2,4.3,12.4,4.3,12.4s-25.5-18.5-9.1-49c16.3-30.5,43.2-18.2,43.7-16.1C250.8,162.5,248.8,170.9,247.9,174.3z"/>
		<path id="Path_143202" class="st4" d="M241.2,169.5c0,0,1.4,10.1,10.2,10.9c8.9,0.8,18.1,6.8,18.1,6.8s-1.6-24.1-19.2-26.8
			S241.2,169.5,241.2,169.5z"/>
		<path id="Path_143203" class="st7" d="M249.5,265.8l-3.4,8.8l17.6-6L249.5,265.8z"/>
		<path id="Path_143204" class="st7" d="M246.4,274.6l-3.3-8.6l-10.1,5.2L246.4,274.6z"/>
		<path id="Path_143205" class="st8" d="M243.1,266l-9.5,14.2L201.6,266l10.1-13.3L243.1,266z"/>
		<path id="Path_143206" class="st8" d="M271.9,266l-12.5-11.3l-10,11.1l9.4,11.6L271.9,266z"/>
		<path id="Path_143207" class="st5" d="M186,274.7c-8.2-6.6-32.8,13.7-51.3,37.8c-32.1,41.9-49.6,50-36,62.9
			c12.3,11.7,26.3-4.7,59.1-36C183.5,314.9,203,288.4,186,274.7z"/>
		<path id="Path_143208" class="st9" d="M165.4,815.9c0,0,9.5,16,9.4,20.2c-0.1,4-0.4,14.5-12.2,14.3c-7.9-0.1-21.8-11.2-25-15.9
			c-2.6-3.9-2.2-25.8-2.2-25.8L165.4,815.9z"/>
		<g id="Group_19634" transform="translate(222.292 787.75)">
			<rect id="Rectangle_16817" x="4.1" y="28.1" class="st9" width="21.2" height="4"/>
			<path id="Path_143209" class="st9" d="M5,0.2C2.2,4.1,0.3,11.7,0,15.1c-0.3,4.2,2.2,13,4.9,13c8.6-0.1,17.3,0.4,25.9,1.4
				c8.3,1.1,11.4,5.9,32.5,5.8c6.2,0,17.1-0.4,17.1-2.9c0-10.9-20.3-7.1-26.7-13C37.3,4.5,26.5,0.8,26.5,0.8S5.5-0.6,5,0.2z"/>
		</g>
		<path id="Path_143210" class="st9" d="M240.4,436.4c0,0-34,34-35.6,48.8s12.8,62.3,17.8,99.6c5.1,37.3,8.2,44.9,6.9,53.7
			s-11.3,44.5-10.9,68.3c0.4,27.7,1.6,84.8,1.6,84.8s4.8,5.5,23.9,5.4c12.3-0.1,17.2-7.2,17.2-7.2s13.3-140.9,14.9-155.6
			c1-9.5,11.1-74.8,11.1-128.1c0-62-7.4-65-7.4-72.1L240.4,436.4z"/>
		<path id="Path_143211" class="st5" d="M187.4,434.1c0,0-13.3,20.2-18.7,42.5s-5,129.8-11,161.3c-2.1,10.8-11.8,44.2-17,77
			s-8.4,98.6-8.4,98.6l34.8,5.4c0,0,32.2-136.9,36.2-158.6c3.9-21.7,52.1-180.6,52.1-180.6l2.1-45.7L187.4,434.1z"/>
		<path id="Path_143212" class="st9" d="M188.7,528.3c-2.8,14.9-13.8,115.1-14.6,120.7c-0.8,5.5-26.8,159.5-28,166.6l-13.8-2.2
			c0,0,3.1-65.8,8.4-98.6s14.8-66.2,17-77c6-28.7,5.6-139.1,11-161.3s18.7-42.5,18.7-42.5l36.7,1.1
			C224.2,435.2,201.1,462.7,188.7,528.3z"/>
		<path id="Path_143213" class="st3" d="M336.8,355c-7.2-4.1-22.8,5.2-32.8,23.5c-11.5,21.1-28.7,51.1-22.1,54.5
			c9,4.7,26-19.8,43.6-37.1C343.3,378.4,351.8,363.6,336.8,355z"/>
		<path id="Path_144157" class="st9" d="M179,425.8h108.5c0.4,0,0.8,0.3,0.8,0.8c0,0,0,0,0,0v22.1c0,0.4-0.3,0.8-0.8,0.8l0,0H179
			c-0.4,0-0.8-0.3-0.8-0.8v-22.1C178.2,426.2,178.6,425.8,179,425.8z"/>
		<path id="Path_143217" class="st10" d="M280.6,285.9c-0.3-0.8-0.9-1.3-1.5-1.2c-1,0.2-2,0.4-3,0.4c-1.3,0-2.6-0.2-3.9-0.5
			c-0.3-0.1-0.6,0-0.8,0.2c-0.9,1-1.9,1.9-3,2.6c-0.9,0.5-1.8,0.9-2.7,1.3c-0.6,0.4-0.9,1.1-0.6,1.8c0.8,3,2.8,9.9,5.3,13.6
			c4,5.8,7.8,6.8,8.9,6.9c0.2,0,0.4,0,0.6-0.2c0.8-0.8,3.4-3.6,3.6-10.7C283.7,295.7,281.6,288.8,280.6,285.9z"/>
		<path id="Path_143218" class="st10" d="M147.7,300c-5.8,7.5-8.7,15-6.5,16.7s8.8-2.9,14.6-10.4s8.7-15,6.5-16.7
			C160.1,287.9,153.5,292.5,147.7,300z"/>
		<path id="Path_143219" class="st2" d="M125.4,366.8c-6.9-7-16.4-7-23.4,0c-2.9,2.8-6.8,4.6-9.5,2.3l-1.1-1.1
			c-2.7-2.3-1.8-10.9,3.2-16c11.3-11.4,26.7-11.4,38,0c5.1,5.1,5.9,13.7,3.2,16l-1.1,1.1C132.2,371.4,128.3,369.5,125.4,366.8z"/>
		<path id="Path_143220" class="st3" d="M98.7,356.6c5.9-5.9,25.7,1.1,43.2,18.9c20.2,20.5,49.6,49.3,44.1,54.3
			c-7.5,6.8-34.8-16.3-59.8-31.4C100.9,383,86.4,368.8,98.7,356.6z"/>
		<g id="Group_19636" transform="translate(170.507 413.701)">
			<path id="Path_143221" class="st3" d="M23.7,32.9L23.7,32.9c1-1,1-2.5,0-3.5L16.4,22c-0.9-1-2.5-1-3.5,0l0,0c-0.9,1-1,2.5,0,3.5
				l7.3,7.4C21.2,33.8,22.7,33.9,23.7,32.9z"/>
			<path id="Path_143222" class="st3" d="M27.3,30L27.3,30c1-1,1-2.5,0-3.5L20,19.1c-0.9-1-2.5-1-3.5,0l0,0c-0.9,1-1,2.5,0,3.5
				l7.3,7.4C24.8,30.9,26.3,31,27.3,30z"/>
			<path id="Path_143223" class="st3" d="M30.6,27L30.6,27c1-1,1-2.5,0-3.5l-7.3-7.4c-0.9-1-2.5-1-3.4,0c0,0,0,0,0,0l0,0
				c-1,0.9-1,2.5,0,3.5l7.3,7.4C28.1,27.9,29.6,27.9,30.6,27z"/>
			<path id="Path_143224" class="st3" d="M33.5,23.7L33.5,23.7c1-1,1-2.5,0-3.5l-7.3-7.5c-1-1-2.5-1-3.5,0l0,0c-0.9,1-1,2.5,0,3.4
				l7.3,7.4C30.9,24.7,32.5,24.7,33.5,23.7C33.5,23.7,33.5,23.7,33.5,23.7z"/>
			<path id="Path_143225" class="st3" d="M7.3,0c0,0,14.2,6.1,16.8,8.1s10,13.1,10,13.1s-5.9,0.2-7.8,2.6s-6,9-6,9s-8.4-6.2-12.1-10
				c-3.1-3-5.8-6.3-8.1-9.9L7.3,0z"/>
		</g>
		<g id="Group_19645" transform="translate(140.929 138.411)">
			<g id="Group_19640" transform="translate(228.947 28.356)">
				<path id="Path_143274" class="st11" d="M0,140.9c0.2-5.2,3.8-9.5,9.3-9.1c5.2,0.5,10.1,5,14.1,8c4.6,3.4,8.9,6.9,12,11.8
					c1.7,2.7,28.2,54.3,43.7,64.6c0.2-0.4,0.5-0.9,0.7-1.3c4-7.5,5.3-10,9.3-17.5c2.7-5.1,15.3-47.3,16.4-50.8
					c4.2-14.2,14-26.1,27.3-32.8c11.3-5.6,23.4-7.5,35.6-7.1c16.4,1.4,22.9,4.8,23.4,5.4c3.8,2,7.3,4.4,10.4,7.3
					c5.3,4.9,38.7,53.9,46.9,74.7c6.8,17.4,14.4,37.9,12.5,56.8c-1.2,11.8-10.1,19.5-22.2,16.6c-8.5-2.1-16.8-7.9-24-12.7
					c-17.9-11.9-33.6-26.8-46.5-44.1c-9.1-1.2-18.3-2-27.6-2.1c-4-0.1-8,0-11.9,0.1c-1.6,0-4.6-7.9-6.3-7.8
					c-9.1,18-13.5,33.7-27.6,48.2c-14.3,14.8-27.5,5.2-31.7,0.3c-9.4-11.1-16.2-25-22.6-38c-6.9-14-18.1-46.4-17.5-47.6
					c-0.1-0.1-0.1-0.1-0.2-0.2c-1.3-0.8-2.7-1.6-4.1-2.2c-4.9-2.1-9.9-3.8-13.8-7.6C2.2,150.3-0.2,145.8,0,140.9z M201.9,213.4
					c0.3,2.2,0.4,4.3,2.1,5.9c2.5,2.3,7.1,3.4,10.2,4.7c1.9,0.8,3.8,1.6,5.8,2.4c1.7,0.7,4.9,2.8,6.8,2.6c8.4-1-14.1-28.1-16.6-30.7
					c-0.9-0.9-2.3,0.4-1.6,1.4c-0.2-0.1-0.3-0.3-0.5-0.4c-0.2-0.2-0.3-0.3-0.5-0.5c-0.2-0.2-0.4-0.3-0.6-0.3c-1.5-1.1-3.2-2-4.9-2.8
					c-0.6-0.2-1.2,0.2-1.3,0.8c0,0.1,0,0.2,0,0.3C200.7,202.4,201.1,207.9,201.9,213.4z"/>
				<path id="Path_143275" class="st12" d="M148.7,643.3c0-0.8-9.5-1.3-11.9,0.2c-2.7,1.7-5.1,2.6-14.5,7.1c-4,1.9-9.9,3.7-10.3,8.8
					c-0.4,4.3,1.4,7.4,12.2,5.7c3.4-0.5,18.4-2.6,20.3-2.9c1.8-0.3,3.3-1.6,3.9-3.3C148.9,657.9,148.4,650.1,148.7,643.3z"/>
				<g id="Group_19639" transform="translate(171.979 386.889)">
					<path id="Path_143276" class="st12" d="M46.1,5.7C47-0.4,58.4,15,46.1,5.7z"/>
					<path id="Path_143277" class="st12" d="M42.1,2.5c1.6,1.3,2.9,2.4,4,3.2c0,0.1,0,0.2,0,0.3c-0.1,0.6-0.1,1.3-0.2,1.9
						c-1.6-0.5-3.3-0.4-4.8,0.3C41.2,4.1,41.6,2,42.1,2.5z"/>
					<path id="Path_143278" class="st11" d="M0,7.5c-0.5-6.1,13.7-7.4,16.6-3.7c1.6-5.1,8.9-4.9,10.9-0.1c2.7-1.1,6.2-0.3,7.6,2.4
						C37,6.3,38.8,7.4,40,8.9c0.3-0.3,0.7-0.5,1.1-0.7c-1.5,36.4,9.9,230.8,8.1,247c-0.3,6.8,0.6,10.3,0.1,13.3
						c0,0.2-0.2,3.4-1.1,4.4c-1.4,1.5-2.3,1.4-4.2,1.7s-16.9,2.4-20.3,2.9c-10.8,1.6-12.6-1.4-12.2-5.7c0.5-5.1,6.3-6.9,10.3-8.8
						c5.7-2.7,8.8-4.1,10.9-5.1C32.6,257.7,2.7,43.5,0,7.5z"/>
				</g>
				<path id="Path_143279" class="st11" d="M159.7,380.6c-0.4-1.4-13,7.9-13.7,15.5c-0.1,0.6-0.1,1.3-0.2,1.9c-2-0.7-4.2-0.3-5.9,1
					c-1.2-1.6-2.9-2.6-4.9-2.9c-1.4-2.7-4.9-3.4-7.6-2.4c-2-4.8-9.3-5-10.9,0.1c-3-3.7,3.1-3.5,3.6,2.6
					c2.7,36.1,12.2,244.2,14.1,248.5c3.2,7.1,14.1,5.6,14.3,1.7c0.4-1.1,0.7-2.2,1-3.3C151.6,625.4,161.4,387.3,159.7,380.6z"/>
				<path id="Path_143280" class="st13" d="M221.2,642.6c-0.3,6.5,0.6,9.9,0.1,12.9c0,0.2-0.2,3.4-1.1,4.4c-1.4,1.5-2.3,1.4-4.2,1.7
					s-16.9,2.4-20.3,2.9c-10.8,1.6-12.6-1.4-12.2-5.7c0.5-5.1,6.3-6.9,10.3-8.8c5.7-2.7,8.8-4.1,10.9-5.1
					C204.6,644.6,215.6,642.2,221.2,642.6z"/>
				<path id="Path_143281" class="st13" d="M149.6,643.3c-0.3,6.5,0.6,9.9,0.1,12.9c0,0.2-0.2,3.4-1.1,4.4c-1.4,1.5-2.3,1.4-4.2,1.7
					s-16.9,2.4-20.3,2.9c-10.8,1.6-12.6-1.4-12.2-5.7c0.5-5.1,6.3-6.9,10.3-8.8c5.7-2.7,8.8-4.1,10.9-5.1
					C133,645.3,144,642.9,149.6,643.3z"/>
				<path id="Path_143282" class="st14" d="M139.1,70.6c3.5-2.1,9-1.6,11.9,1.5c0.2,0.1,0.4,0.1,0.6,0.2c13-4.2,24,24.7,27.9,38.6
					c1.3,4.6-4.8,0.4-9,2.2c-1.5,0.6-3.1,0.9-4.8,0.7c-0.5,0.2-1,0.4-1.5,0.6c-1.5,1.2-3.2,2-5.1,2.2c-4.9,2.3-11.7,1-13.7-5.8
					c-1.4-5.1-8.3-20.7-8.3-20.7c-0.6-1-1-2.1-1.2-3.3c-1-1.7-1.3-3.6-1.1-5.5C133.9,77.2,135.1,72.9,139.1,70.6z"/>
				<path id="Path_143283" class="st9" d="M109.1,8.5c11.9-8.7,33-12.3,45.6-3.2c4.2,3.1,6.3,8.4,3.5,13.3c-2.4,4.2-9,6.6-13.3,3.5
					c-6.7-4.9-18.6-2.4-24.9,2.3c-2.8,2.1-2.5,4.8-1.8,8c1.2,5.8,2.9,11.5,4.3,17.2c3.1,12.1-15.6,17.3-18.7,5.2
					c-2-8-5-16.4-5.4-24.7C98,21.1,102,13.7,109.1,8.5z"/>
				<path id="Path_143284" class="st11" d="M97.9,41.8c-0.1-20,22.9-43.8,41-25.9c2.2,2.2,4,4.8,5.3,7.6c2.2,1.2,4.1,3,5.3,5.2
					c5.4,9.4,7.9,21.4,8.2,32.2c0.3,9.4-2.5,19.1-9.1,25.9c-6.7,6.8-17.4,9.8-26.3,5.8C104.9,84.6,98,59.6,97.9,41.8z"/>
				<path id="Path_143285" class="st9" d="M108,12.2c8-4.7,17.9-7.3,27.2-5.6c1.7,0.3,3.3,0.9,4.8,1.6C141.8,4.6,146,2.8,150,4
					c11.9,2.9,15.5,13.2,19.8,23.1c6.1,1.9,13.6,0.7,19.8,1.6c10.3,1.5,19.5,6.8,25.1,15.7c6.4,10.5,5.9,23.9-1.2,33.9
					c-7.5,9.3-18.6,14.2-20.9,14.8c-1.2,1.9-2.4,3.7-3.8,5.5c-9.6,11.1-26.5,9-34.8-2.2c-4.7-6.3-7.2-14.3-9.8-21.6
					c-0.9-2.5-1.7-5-2.4-7.5c-2.7-10-7.7-19.2-14.7-26.8c-4.7-5-17.1-9-23.8-11.1C95.8,26.9,101,16.4,108,12.2z"/>
				<path id="Path_143286" class="st15" d="M105.5,146.6c3.5-11.9,11-22.3,21.3-29.3c5.1,4.8,13.2,9.2,26.6,6.3
					c6.2-1.3,11.8-3.1,16.7-6.3c3.7-2.6,7.1-5.6,10-9.1c7.9,1.5,11.3,3.3,11.6,3.8c3.8,2,7.3,4.4,10.4,7.3
					c4.3,4,27.1,36.9,39.9,60.3c1.5,2.7,0.5,6.2-2.3,7.7c-0.2,0.1-0.4,0.2-0.6,0.3c-8.1,3.2-18.6,9.1-24.5,12.6
					c-2.3,1.3-5.1,1.2-7.3-0.3c-0.4-0.2-0.7-0.5-1.1-0.6c-0.2,9.7-0.8,29-2.2,32.2c-2.9,6.6-9.8-16.4-15.4-20.3
					c-6.8-4.8-5.7-13.3-7.7-20.5c-2.3-8.2-7.6-15.2-9.7-23.6c-0.2-0.9-0.3-1.7-0.1-2.6c-0.8-3.3,0.9-6.6,4-7.9
					c-0.2-0.4-0.4-0.8-0.6-1.2c-6.2,2.5-12.6,4.4-19.2,5.9c-2.1,3.7-6.4,5.6-10.5,4.5c-2.8-0.7-5.7-1.4-8.6-2
					c-1.3,0.1-2.6,0.1-3.9,0.1l0.1,0.1c4.3,4.6,2.8,12.1-1.8,15.3c0.3,0.4,0.6,0.8,0.9,1.1c1.9,2.5,1.7,6.3,0.3,9.2c1,1,2,2,3,3.1
					c2.5,2.7,3.3,6.6,2,10.1c0.2,2-0.2,4.1-1.2,5.8l0,0c-2.1,0-4.1,0.1-6.2,0.1c-1.6,0-4.6-7.9-6.3-7.8c-1.5,2.9-3,6.1-4.5,9.4
					c-8.1-3.9-16.2-7.9-24.3-12c-2.6-1.3-3.8-4.3-2.8-7C96.1,178.1,104.6,149.4,105.5,146.6z"/>
				<path id="Path_143287" class="st16" d="M102.6,538.4c0-20,2.9-219.8,6.6-260.4c1.4-15.3,7.5-39.1,8-54.3
					c0.6-18.7-0.8-34.2-1-48.6c-1.4-9.1-1.7-18.3-1-27.5c0.5-5.8,1.3-11.6,2.6-17.4c0.2-1,0.8-3.5,1.6-6.7c0.1-0.3,0.2-0.3,0.2-0.3
					c1.9-1.9,4-3.7,6.2-5.3c1.8-1.2,3.6-2.3,5.5-3.3c0,0-0.1,0.5-0.2,0.7c-2.4,9.9-4.8,22.4-5,23.7c-0.7,4.6-1.2,9.3-1.3,14
					c0,0.2,0,0.4,0,0.6c0.4-0.1,0.9-0.2,1.3-0.3c6.9-0.5,30.8-0.3,41.2,0.6c-0.2-6.8,0.7-13.5,2.6-20c2.9-9.2,8.9-19.2,17.8-23.3
					c0.2-0.1,0.4-0.2,0.7-0.3c0.8-0.3,5,2.2,8,4.3c2.6,1.8,4.6,3.5,4.6,3.5s-2.1,0.1-4.2,0.2c-11,0.4-16.8,13.8-18.7,22.8
					c-1.2,5.9-1.5,11.9-0.8,17.9c1.4,8.8,16.1,75.3,22.2,84.9c5.7,9,11.9,22.4,14.3,35.9c7.8,44.2,11.5,75.7,12.9,86.8
					c5.2,40.9,37,165,39.1,173.4c1.5,6.2,5.2,18.9-11.3,26.1c-4.5,2-35.8,2.3-41.3,2.3l-30.8-0.3c-10.3-0.1-68.8,1.6-74.9-5.4
					C101.4,556.4,102.6,546.5,102.6,538.4z"/>
				<path id="Path_143288" class="st13" d="M193.4,112.8c0,0-0.2,0.3-0.3,0.4c-8.2,14.5-6.7,31.9-4.7,47.9
					c2.5,19.6,10.9,67.2,14.7,86.6c1.1,5.5-7.3,7.8-8.4,2.3c-4.1-20.7-12.6-69.5-15.2-90.4c-2.1-16.7-2.8-34.5,5.5-49.7
					c0.1-0.1,0.2-0.4,0.2-0.4c1.5,0.3,3,0.7,4.4,1.3C190.6,111.2,193.4,112.8,193.4,112.8z"/>
				<path id="Path_143289" class="st13" d="M188.6,234.6c8.7,7.1,19.3,15.1,19.6,15.1l0,0c2.4,1.7,4.8,3.4,7.2,5.1
					c7.2,4.8,15.5,10.6,24,12.7c2.4,0.6,4.9,0.8,7.4,0.5c6,14.4,10.3,29.5,13,44.9c1.7,9.8,2.7,19.8,3,29.7
					c0.2,7.8,0.8,16.9-4.1,23.5c-5.7,7.5-16.2,7.9-24.9,7.6c-8.8-0.3-18.3-1.3-26.8-3.8c-8.5-2.5-15.3-7.6-19.1-15.7
					c-3.8-8.1-5.5-17.4-7.2-26.1c-4-20.1-5.7-40.6-5-61C176.1,255.5,179.4,241.2,188.6,234.6z"/>
				<path id="Path_143290" class="st11" d="M151.5,191.5c11.3-8.1,26.2,11,28.2,12.7c11.6,9.9,25.9,15.7,37.6,25.6
					c2.7,2.3,2.2,5.9,0.3,8.3c3.3,3,1.3,7.9-2,9.8c-1.8,1.8-4.9,3.2-7.4,1.7c-0.4-0.1-23.4-17.3-29.2-23.8c-6.6-6-14-11.1-21.9-15.3
					c-3.6-1.9-7.5-3.5-9-7.6C146.4,198.8,147.9,194.1,151.5,191.5z"/>
				<path id="Path_143291" class="st17" d="M0.9,123.6c0.3-3.5,4.3-5.4,7.5-6.2c4.1-1.1,6.4,1.2,7,2.4c7,15.1,15.6,30.3,19.2,46.6
					c0.3,1.3-0.4,2.6-1.7,3c-3.6,1.4-7.5,2.2-10.5-0.8c-3.7-3.7-6.1-9.7-8.5-14.3c-2.9-5.4-5.5-10.9-8-16.5
					C4,133.6,0.5,128.2,0.9,123.6z"/>
				<path id="Path_143292" class="st11" d="M1.5,139l0-3.5c0-1.3,1.1-2.4,2.4-2.4c5.8-0.5,11.6,1.1,16.3,4.6
					c2.1,1.6,4.5,3.7,4.9,6.4c0.2,1.2-0.3,2.2-0.3,3.4c0,0.3,0,0.6,0,0.9c2,2.8,3.9,7.4,2,10.7c-1.7,2.9-5.5,2.7-8.3,1.8
					c-7.7-2.6-13.4-10.8-16.4-18c-0.3-0.7-0.2-1.5,0.4-2C1.9,140.6,1.5,139.9,1.5,139z"/>
			</g>
			<g id="Group_19644" transform="translate(191.396 -95)">
				<g id="Group_19641">
					<path id="Path_143293" class="st18" d="M125.3,109.4L116,85.2c4.8-7.1,7.8-15.3,8.6-23.9c2.8-30.6-22.8-58-57.2-61.1
						S3,19.5,0.2,50.1s22.8,58,57.2,61.1c15.8,1.6,31.7-2.6,44.8-11.8L125.3,109.4z"/>
				</g>
			</g>
		</g>
		<path id="Path_133998" class="st19" d="M256.1,226.6c0,0-7,1.6-11.9,1.2c-4.9-0.4-6.9-0.6-6.9-0.6s7.2,6.5,12.6,5.5
			C253.1,232.2,255.6,229.7,256.1,226.6z"/>
		<path id="Path_133989" class="st20" d="M238.1,207.5c-0.3-0.3-0.6-0.6-1-0.6c-0.2-0.1-0.4-0.2-0.6-0.2c-2.2,0-2.4,2.7-2.3,4.3
			c0,0.8,0.4,1.6,1,2.1c0.8,0.4,1.8,0.3,2.4-0.3C238.6,211.6,239.1,208.7,238.1,207.5z"/>
		<path id="Path_133990" class="st20" d="M261.8,207.2c-0.3-0.3-0.6-0.6-1-0.6c-0.2-0.1-0.4-0.2-0.6-0.2c-2.2,0-2.4,2.7-2.3,4.3
			c0,0.8,0.4,1.6,1,2.1c0.8,0.4,1.8,0.3,2.4-0.4C262.3,211.3,262.8,208.5,261.8,207.2z"/>
		<path id="Path_144153" class="st20" d="M489.1,218.2c-0.2-0.4-0.6-0.6-1-0.7c-0.2-0.1-0.4-0.2-0.6-0.3c-2.1-0.3-2.7,2.4-2.8,4.1
			c-0.1,0.8,0.2,1.6,0.8,2.2c0.7,0.5,1.7,0.5,2.4-0.1C489.2,222.3,490,219.5,489.1,218.2z"/>
		<path id="Path_144154" class="st20" d="M474.1,218.2c-0.2-0.4-0.6-0.6-1-0.7c-0.2-0.1-0.4-0.2-0.6-0.3c-2.1-0.3-2.7,2.4-2.8,4.1
			c-0.1,0.8,0.2,1.6,0.8,2.2c0.7,0.5,1.7,0.5,2.4-0.1C474.2,222.3,475,219.5,474.1,218.2z"/>
		<path id="Path_144156" class="st21" d="M488.1,244.1l-4.7,1.8c-1.9,0.5-2.7,2-3,3.8l12-3.8C491.3,244.4,490,243.5,488.1,244.1z"/>
		<path id="Path_144364" class="st22" d="M481.3,238.3c0.4,0,0.7-0.3,0.7-0.7c0-0.4-0.3-0.7-0.6-0.7c-4.5-0.4-5.8-1.5-6.1-2.3
			c-0.2-0.5,0-1,0.5-2.2c0.2-0.6,0.5-1.3,0.8-2.3c0.5-1.7,0.9-3.4,1.2-5.2c0-0.4-0.2-0.7-0.6-0.8c-0.4,0-0.7,0.2-0.8,0.5
			c-0.3,1.7-0.6,3.3-1.2,5c-0.3,0.9-0.5,1.6-0.8,2.2c-0.5,1.4-0.8,2.2-0.5,3.1C474.7,236.9,477,237.9,481.3,238.3L481.3,238.3z"/>
		<path id="Path_144360" class="st23" d="M237.9,201.1c1.1,2.3-0.4,2.9-4.8,3.4s-5.4,0-5.5-1.3C227.5,200.6,235.9,197,237.9,201.1z"
			/>
		<path id="Path_144363" class="st24" d="M473,212.6c0.8,1.7-2.3,0.6-2.9,0.8s-2.5,1.8-2.2,0.5C467.8,212,471.6,209.6,473,212.6z"/>
		<path id="Path_144361" class="st23" d="M254.1,199.3c-0.7,2.6,0.8,3.1,5.2,3.2s5.3-0.5,5.2-2C264.1,197.5,255.4,194.6,254.1,199.3
			z"/>
		<path id="Path_144362" class="st24" d="M482.1,211.3c-0.7,2.6,1,0.4,5.3,0.5s3.6,2,3.5,0.6C490.7,209.4,483.4,206.6,482.1,211.3z"
			/>
		<g id="Group_19635" transform="translate(202.725 154.032)">
			<path id="Path_143214" class="st5" d="M0,38.3C0,38.3-1.4,0,36.6,0C67.7,0,70,30.2,70,30.2c-12.7,6-26.6,8.9-40.6,8.7
				C6.3,38.4,0,38.3,0,38.3z"/>
			<path id="Path_143216" class="st25" d="M49.3,22.1c1.1,4.7,6.9,7.5,8.9,7c2.6-0.6,6.1-5.4,5-10.1s-3.6-8.2-8.9-7
				C49,13.1,48.3,17.3,49.3,22.1z"/>
			<path id="Path_143215" class="st9" d="M13.5,38.5c0,0,34.6,10.8,35.4,10.3s10.3-7.3,22.3-9.3c10.2-1.6,16.7,4.1,17.3,3
				S69.7,27.7,69.7,27.7s-1.9,3.2-17.3,5.9C24.7,38.3,13.8,36.6,13.5,38.5z"/>
		</g>
		<path id="Path_144395" class="st22" d="M244.4,221.2c-0.5,0-1.1,0-1.7-0.1c-0.3,0-0.5-0.3-0.5-0.6s0.3-0.5,0.6-0.5c0,0,0,0,0,0
			c3.7,0.3,4.8-0.4,5.2-1c0.2-0.4,0.1-0.8-0.1-1.9c-0.1-0.5-0.2-1.1-0.3-1.9c-0.2-1.4-0.3-2.9-0.2-4.3c0-0.3,0.2-0.6,0.5-0.6
			s0.6,0.2,0.6,0.5c0,0,0,0,0,0.1c0,1.4,0.1,2.8,0.2,4.1c0.1,0.8,0.2,1.4,0.3,1.9c0.3,0.8,0.3,1.8-0.1,2.6
			C248.3,220.6,246.8,221.2,244.4,221.2z"/>
	</g>
</g>
</svg>
